M48
INCH,TZ
T1C0.0157
T2C0.0394
T3C0.1260
%
G90
G05
T1
X26000Y-45000
X27500Y-37000
X27500Y-37500
X27500Y-37500
X29000Y-45000
X32500Y-37000
X32500Y-37000
X32500Y-37500
X32500Y-38500
X33000Y-34000
X34000Y-37500
X36500Y-37000
X37500Y-36429
X37500Y-37500
X38500Y-37000
T2
X20500Y-38250
X20500Y-39250
X20500Y-40250
X20500Y-41250
X20500Y-42250
X21500Y-38250
X21500Y-39250
X21500Y-40250
X21500Y-41250
X21500Y-42250
X44700Y-36441
X44700Y-37531
X44700Y-38622
X44700Y-39713
X44700Y-40803
X44700Y-41894
X44700Y-42984
X44700Y-44075
X45818Y-36986
X45818Y-38077
X45818Y-39167
X45818Y-40258
X45818Y-41348
X45818Y-42439
X45818Y-43530
T3
X45259Y-33703
X45259Y-46813
T2
G00X34992Y-44500
M15
G01X34008Y-44500
M16
G05
G00X34894Y-46862
M15
G01X34106Y-46862
M16
G05
T0
M30
