G04 #@! TF.GenerationSoftware,KiCad,Pcbnew,(5.1.10)-1*
G04 #@! TF.CreationDate,2021-08-27T17:33:28-04:00*
G04 #@! TF.ProjectId,Coco3AppleRGB,436f636f-3341-4707-906c-655247422e6b,rev?*
G04 #@! TF.SameCoordinates,Original*
G04 #@! TF.FileFunction,Soldermask,Top*
G04 #@! TF.FilePolarity,Negative*
%FSLAX46Y46*%
G04 Gerber Fmt 4.6, Leading zero omitted, Abs format (unit mm)*
G04 Created by KiCad (PCBNEW (5.1.10)-1) date 2021-08-27 17:33:28*
%MOMM*%
%LPD*%
G01*
G04 APERTURE LIST*
%ADD10O,4.500000X2.250000*%
%ADD11O,5.000000X2.500000*%
%ADD12C,4.000000*%
%ADD13C,1.600000*%
%ADD14R,1.600000X1.600000*%
%ADD15C,1.700000*%
G04 APERTURE END LIST*
D10*
X87630000Y-119030000D03*
D11*
X87630000Y-113030000D03*
G36*
G01*
X64939999Y-107580000D02*
X67140001Y-107580000D01*
G75*
G02*
X67390000Y-107829999I0J-249999D01*
G01*
X67390000Y-108655001D01*
G75*
G02*
X67140001Y-108905000I-249999J0D01*
G01*
X64939999Y-108905000D01*
G75*
G02*
X64690000Y-108655001I0J249999D01*
G01*
X64690000Y-107829999D01*
G75*
G02*
X64939999Y-107580000I249999J0D01*
G01*
G37*
G36*
G01*
X64939999Y-104455000D02*
X67140001Y-104455000D01*
G75*
G02*
X67390000Y-104704999I0J-249999D01*
G01*
X67390000Y-105530001D01*
G75*
G02*
X67140001Y-105780000I-249999J0D01*
G01*
X64939999Y-105780000D01*
G75*
G02*
X64690000Y-105530001I0J249999D01*
G01*
X64690000Y-104704999D01*
G75*
G02*
X64939999Y-104455000I249999J0D01*
G01*
G37*
G36*
G01*
X72559999Y-107580000D02*
X74760001Y-107580000D01*
G75*
G02*
X75010000Y-107829999I0J-249999D01*
G01*
X75010000Y-108655001D01*
G75*
G02*
X74760001Y-108905000I-249999J0D01*
G01*
X72559999Y-108905000D01*
G75*
G02*
X72310000Y-108655001I0J249999D01*
G01*
X72310000Y-107829999D01*
G75*
G02*
X72559999Y-107580000I249999J0D01*
G01*
G37*
G36*
G01*
X72559999Y-104455000D02*
X74760001Y-104455000D01*
G75*
G02*
X75010000Y-104704999I0J-249999D01*
G01*
X75010000Y-105530001D01*
G75*
G02*
X74760001Y-105780000I-249999J0D01*
G01*
X72559999Y-105780000D01*
G75*
G02*
X72310000Y-105530001I0J249999D01*
G01*
X72310000Y-104704999D01*
G75*
G02*
X72559999Y-104455000I249999J0D01*
G01*
G37*
G36*
G01*
X78115000Y-88530000D02*
X79365000Y-88530000D01*
G75*
G02*
X79615000Y-88780000I0J-250000D01*
G01*
X79615000Y-89580000D01*
G75*
G02*
X79365000Y-89830000I-250000J0D01*
G01*
X78115000Y-89830000D01*
G75*
G02*
X77865000Y-89580000I0J250000D01*
G01*
X77865000Y-88780000D01*
G75*
G02*
X78115000Y-88530000I250000J0D01*
G01*
G37*
G36*
G01*
X78115000Y-85430000D02*
X79365000Y-85430000D01*
G75*
G02*
X79615000Y-85680000I0J-250000D01*
G01*
X79615000Y-86480000D01*
G75*
G02*
X79365000Y-86730000I-250000J0D01*
G01*
X78115000Y-86730000D01*
G75*
G02*
X77865000Y-86480000I0J250000D01*
G01*
X77865000Y-85680000D01*
G75*
G02*
X78115000Y-85430000I250000J0D01*
G01*
G37*
G36*
G01*
X89755000Y-92130000D02*
X89755000Y-91930000D01*
G75*
G02*
X89855000Y-91830000I100000J0D01*
G01*
X91130000Y-91830000D01*
G75*
G02*
X91230000Y-91930000I0J-100000D01*
G01*
X91230000Y-92130000D01*
G75*
G02*
X91130000Y-92230000I-100000J0D01*
G01*
X89855000Y-92230000D01*
G75*
G02*
X89755000Y-92130000I0J100000D01*
G01*
G37*
G36*
G01*
X89755000Y-92780000D02*
X89755000Y-92580000D01*
G75*
G02*
X89855000Y-92480000I100000J0D01*
G01*
X91130000Y-92480000D01*
G75*
G02*
X91230000Y-92580000I0J-100000D01*
G01*
X91230000Y-92780000D01*
G75*
G02*
X91130000Y-92880000I-100000J0D01*
G01*
X89855000Y-92880000D01*
G75*
G02*
X89755000Y-92780000I0J100000D01*
G01*
G37*
G36*
G01*
X89755000Y-93430000D02*
X89755000Y-93230000D01*
G75*
G02*
X89855000Y-93130000I100000J0D01*
G01*
X91130000Y-93130000D01*
G75*
G02*
X91230000Y-93230000I0J-100000D01*
G01*
X91230000Y-93430000D01*
G75*
G02*
X91130000Y-93530000I-100000J0D01*
G01*
X89855000Y-93530000D01*
G75*
G02*
X89755000Y-93430000I0J100000D01*
G01*
G37*
G36*
G01*
X89755000Y-94080000D02*
X89755000Y-93880000D01*
G75*
G02*
X89855000Y-93780000I100000J0D01*
G01*
X91130000Y-93780000D01*
G75*
G02*
X91230000Y-93880000I0J-100000D01*
G01*
X91230000Y-94080000D01*
G75*
G02*
X91130000Y-94180000I-100000J0D01*
G01*
X89855000Y-94180000D01*
G75*
G02*
X89755000Y-94080000I0J100000D01*
G01*
G37*
G36*
G01*
X89755000Y-94730000D02*
X89755000Y-94530000D01*
G75*
G02*
X89855000Y-94430000I100000J0D01*
G01*
X91130000Y-94430000D01*
G75*
G02*
X91230000Y-94530000I0J-100000D01*
G01*
X91230000Y-94730000D01*
G75*
G02*
X91130000Y-94830000I-100000J0D01*
G01*
X89855000Y-94830000D01*
G75*
G02*
X89755000Y-94730000I0J100000D01*
G01*
G37*
G36*
G01*
X89755000Y-95380000D02*
X89755000Y-95180000D01*
G75*
G02*
X89855000Y-95080000I100000J0D01*
G01*
X91130000Y-95080000D01*
G75*
G02*
X91230000Y-95180000I0J-100000D01*
G01*
X91230000Y-95380000D01*
G75*
G02*
X91130000Y-95480000I-100000J0D01*
G01*
X89855000Y-95480000D01*
G75*
G02*
X89755000Y-95380000I0J100000D01*
G01*
G37*
G36*
G01*
X89755000Y-96030000D02*
X89755000Y-95830000D01*
G75*
G02*
X89855000Y-95730000I100000J0D01*
G01*
X91130000Y-95730000D01*
G75*
G02*
X91230000Y-95830000I0J-100000D01*
G01*
X91230000Y-96030000D01*
G75*
G02*
X91130000Y-96130000I-100000J0D01*
G01*
X89855000Y-96130000D01*
G75*
G02*
X89755000Y-96030000I0J100000D01*
G01*
G37*
G36*
G01*
X84030000Y-96030000D02*
X84030000Y-95830000D01*
G75*
G02*
X84130000Y-95730000I100000J0D01*
G01*
X85405000Y-95730000D01*
G75*
G02*
X85505000Y-95830000I0J-100000D01*
G01*
X85505000Y-96030000D01*
G75*
G02*
X85405000Y-96130000I-100000J0D01*
G01*
X84130000Y-96130000D01*
G75*
G02*
X84030000Y-96030000I0J100000D01*
G01*
G37*
G36*
G01*
X84030000Y-95380000D02*
X84030000Y-95180000D01*
G75*
G02*
X84130000Y-95080000I100000J0D01*
G01*
X85405000Y-95080000D01*
G75*
G02*
X85505000Y-95180000I0J-100000D01*
G01*
X85505000Y-95380000D01*
G75*
G02*
X85405000Y-95480000I-100000J0D01*
G01*
X84130000Y-95480000D01*
G75*
G02*
X84030000Y-95380000I0J100000D01*
G01*
G37*
G36*
G01*
X84030000Y-94730000D02*
X84030000Y-94530000D01*
G75*
G02*
X84130000Y-94430000I100000J0D01*
G01*
X85405000Y-94430000D01*
G75*
G02*
X85505000Y-94530000I0J-100000D01*
G01*
X85505000Y-94730000D01*
G75*
G02*
X85405000Y-94830000I-100000J0D01*
G01*
X84130000Y-94830000D01*
G75*
G02*
X84030000Y-94730000I0J100000D01*
G01*
G37*
G36*
G01*
X84030000Y-94080000D02*
X84030000Y-93880000D01*
G75*
G02*
X84130000Y-93780000I100000J0D01*
G01*
X85405000Y-93780000D01*
G75*
G02*
X85505000Y-93880000I0J-100000D01*
G01*
X85505000Y-94080000D01*
G75*
G02*
X85405000Y-94180000I-100000J0D01*
G01*
X84130000Y-94180000D01*
G75*
G02*
X84030000Y-94080000I0J100000D01*
G01*
G37*
G36*
G01*
X84030000Y-93430000D02*
X84030000Y-93230000D01*
G75*
G02*
X84130000Y-93130000I100000J0D01*
G01*
X85405000Y-93130000D01*
G75*
G02*
X85505000Y-93230000I0J-100000D01*
G01*
X85505000Y-93430000D01*
G75*
G02*
X85405000Y-93530000I-100000J0D01*
G01*
X84130000Y-93530000D01*
G75*
G02*
X84030000Y-93430000I0J100000D01*
G01*
G37*
G36*
G01*
X84030000Y-92780000D02*
X84030000Y-92580000D01*
G75*
G02*
X84130000Y-92480000I100000J0D01*
G01*
X85405000Y-92480000D01*
G75*
G02*
X85505000Y-92580000I0J-100000D01*
G01*
X85505000Y-92780000D01*
G75*
G02*
X85405000Y-92880000I-100000J0D01*
G01*
X84130000Y-92880000D01*
G75*
G02*
X84030000Y-92780000I0J100000D01*
G01*
G37*
G36*
G01*
X84030000Y-92130000D02*
X84030000Y-91930000D01*
G75*
G02*
X84130000Y-91830000I100000J0D01*
G01*
X85405000Y-91830000D01*
G75*
G02*
X85505000Y-91930000I0J-100000D01*
G01*
X85505000Y-92130000D01*
G75*
G02*
X85405000Y-92230000I-100000J0D01*
G01*
X84130000Y-92230000D01*
G75*
G02*
X84030000Y-92130000I0J100000D01*
G01*
G37*
G36*
G01*
X66665000Y-94350000D02*
X65415000Y-94350000D01*
G75*
G02*
X65165000Y-94100000I0J250000D01*
G01*
X65165000Y-93300000D01*
G75*
G02*
X65415000Y-93050000I250000J0D01*
G01*
X66665000Y-93050000D01*
G75*
G02*
X66915000Y-93300000I0J-250000D01*
G01*
X66915000Y-94100000D01*
G75*
G02*
X66665000Y-94350000I-250000J0D01*
G01*
G37*
G36*
G01*
X66665000Y-97450000D02*
X65415000Y-97450000D01*
G75*
G02*
X65165000Y-97200000I0J250000D01*
G01*
X65165000Y-96400000D01*
G75*
G02*
X65415000Y-96150000I250000J0D01*
G01*
X66665000Y-96150000D01*
G75*
G02*
X66915000Y-96400000I0J-250000D01*
G01*
X66915000Y-97200000D01*
G75*
G02*
X66665000Y-97450000I-250000J0D01*
G01*
G37*
G36*
G01*
X74285000Y-94350000D02*
X73035000Y-94350000D01*
G75*
G02*
X72785000Y-94100000I0J250000D01*
G01*
X72785000Y-93300000D01*
G75*
G02*
X73035000Y-93050000I250000J0D01*
G01*
X74285000Y-93050000D01*
G75*
G02*
X74535000Y-93300000I0J-250000D01*
G01*
X74535000Y-94100000D01*
G75*
G02*
X74285000Y-94350000I-250000J0D01*
G01*
G37*
G36*
G01*
X74285000Y-97450000D02*
X73035000Y-97450000D01*
G75*
G02*
X72785000Y-97200000I0J250000D01*
G01*
X72785000Y-96400000D01*
G75*
G02*
X73035000Y-96150000I250000J0D01*
G01*
X74285000Y-96150000D01*
G75*
G02*
X74535000Y-96400000I0J-250000D01*
G01*
X74535000Y-97200000D01*
G75*
G02*
X74285000Y-97450000I-250000J0D01*
G01*
G37*
D12*
X114958000Y-85605000D03*
X114958000Y-118905000D03*
D13*
X116378000Y-110565000D03*
X116378000Y-107795000D03*
X116378000Y-105025000D03*
X116378000Y-102255000D03*
X116378000Y-99485000D03*
X116378000Y-96715000D03*
X116378000Y-93945000D03*
X113538000Y-111950000D03*
X113538000Y-109180000D03*
X113538000Y-106410000D03*
X113538000Y-103640000D03*
X113538000Y-100870000D03*
X113538000Y-98100000D03*
X113538000Y-95330000D03*
D14*
X113538000Y-92560000D03*
D15*
X52070000Y-97155000D03*
X52070000Y-99695000D03*
X52070000Y-102235000D03*
X52070000Y-104775000D03*
X52070000Y-107315000D03*
X54610000Y-97155000D03*
X54610000Y-99695000D03*
X54610000Y-102235000D03*
X54610000Y-104775000D03*
G36*
G01*
X55460000Y-106715000D02*
X55460000Y-107915000D01*
G75*
G02*
X55210000Y-108165000I-250000J0D01*
G01*
X54010000Y-108165000D01*
G75*
G02*
X53760000Y-107915000I0J250000D01*
G01*
X53760000Y-106715000D01*
G75*
G02*
X54010000Y-106465000I250000J0D01*
G01*
X55210000Y-106465000D01*
G75*
G02*
X55460000Y-106715000I0J-250000D01*
G01*
G37*
G36*
G01*
X87180000Y-85885000D02*
X87180000Y-86835000D01*
G75*
G02*
X86930000Y-87085000I-250000J0D01*
G01*
X86255000Y-87085000D01*
G75*
G02*
X86005000Y-86835000I0J250000D01*
G01*
X86005000Y-85885000D01*
G75*
G02*
X86255000Y-85635000I250000J0D01*
G01*
X86930000Y-85635000D01*
G75*
G02*
X87180000Y-85885000I0J-250000D01*
G01*
G37*
G36*
G01*
X89255000Y-85885000D02*
X89255000Y-86835000D01*
G75*
G02*
X89005000Y-87085000I-250000J0D01*
G01*
X88330000Y-87085000D01*
G75*
G02*
X88080000Y-86835000I0J250000D01*
G01*
X88080000Y-85885000D01*
G75*
G02*
X88330000Y-85635000I250000J0D01*
G01*
X89005000Y-85635000D01*
G75*
G02*
X89255000Y-85885000I0J-250000D01*
G01*
G37*
M02*
